<?xml version="1.0" encoding="utf-8"?>
<!-- Generator: Adobe Illustrator 15.1.0, SVG Export Plug-In  -->
<!DOCTYPE svg PUBLIC "-//W3C//DTD SVG 1.1//EN" "http://www.w3.org/Graphics/SVG/1.1/DTD/svg11.dtd" [
	<!ENTITY ns_flows "http://ns.adobe.com/Flows/1.0/">
]>
<svg version="1.1"
	 xmlns="http://www.w3.org/2000/svg" xmlns:xlink="http://www.w3.org/1999/xlink" xmlns:a="http://ns.adobe.com/AdobeSVGViewerExtensions/3.0/"
	 x="0px" y="0px" width="19px" height="20px" viewBox="-0.292 -0.209 19 20"
	 overflow="visible" enable-background="new -0.292 -0.209 19 20" xml:space="preserve">
<defs>
</defs>
<path opacity="0.5" fill="#3D3D3D" d="M18.69,9.43c0,1.302-0.262,2.541-0.734,3.669c-0.473,1.127-1.157,2.142-2.003,2.998
	c-0.846,0.853-1.853,1.542-2.97,2.021c-1.119,0.477-2.348,0.741-3.638,0.741c-1.292,0-2.521-0.264-3.639-0.741
	c-1.118-0.478-2.124-1.168-2.97-2.021c-0.847-0.855-1.53-1.87-2.003-2.998C0.262,11.971,0,10.731,0,9.43
	c0-1.302,0.262-2.541,0.734-3.67C1.207,4.632,1.89,3.616,2.737,2.763c0.846-0.853,1.853-1.544,2.97-2.022
	C6.825,0.265,8.054,0,9.346,0c1.29,0,2.519,0.265,3.638,0.741c1.117,0.478,2.124,1.169,2.97,2.022
	c0.846,0.854,1.53,1.869,2.003,2.997C18.428,6.889,18.69,8.127,18.69,9.43z"/>
<path fill="#0D47A1" stroke="#FFFFFF" stroke-width="2" stroke-miterlimit="10" d="M16.928,8.747c0,1.047-0.212,2.044-0.596,2.951
	c-0.383,0.908-0.939,1.725-1.625,2.41c-0.686,0.687-1.502,1.242-2.41,1.626c-0.907,0.383-1.904,0.596-2.951,0.596
	c-1.047,0-2.045-0.213-2.952-0.596c-0.908-0.384-1.724-0.939-2.41-1.626c-0.686-0.686-1.242-1.502-1.625-2.41
	c-0.384-0.907-0.596-1.904-0.596-2.951c0-1.046,0.212-2.043,0.596-2.951c0.383-0.907,0.939-1.725,1.625-2.41
	C4.67,2.7,5.485,2.145,6.394,1.761C7.3,1.378,8.298,1.164,9.345,1.164c1.047,0,2.044,0.214,2.951,0.597
	c0.908,0.384,1.724,0.939,2.41,1.625c0.686,0.686,1.242,1.503,1.625,2.41C16.716,6.704,16.928,7.701,16.928,8.747z"/>
</svg>
